<?xml version="1.0" encoding="UTF-8" standalone="no"?>
<svg
   xmlns:dc="http://purl.org/dc/elements/1.1/"
   xmlns:cc="http://creativecommons.org/ns#"
   xmlns:rdf="http://www.w3.org/1999/02/22-rdf-syntax-ns#"
   xmlns:svg="http://www.w3.org/2000/svg"
   xmlns="http://www.w3.org/2000/svg"
   xmlns:sodipodi="http://sodipodi.sourceforge.net/DTD/sodipodi-0.dtd"
   xmlns:inkscape="http://www.inkscape.org/namespaces/inkscape"
   inkscape:version="1.0beta2 (2b71d25, 2019-12-03)"
   sodipodi:docname="B4BLogo_white.svg"
   id="svg895"
   version="1.1"
   viewBox="0 0 256 256">
  <metadata
     id="metadata899">
    <rdf:RDF>
      <cc:Work
         rdf:about="">
        <dc:format>image/svg+xml</dc:format>
        <dc:type
           rdf:resource="http://purl.org/dc/dcmitype/StillImage" />
        <dc:title></dc:title>
      </cc:Work>
    </rdf:RDF>
  </metadata>
  <sodipodi:namedview
     inkscape:current-layer="Layer_1-2"
     inkscape:window-maximized="0"
     inkscape:window-y="23"
     inkscape:window-x="0"
     inkscape:cy="128"
     inkscape:cx="128"
     inkscape:zoom="2.625"
     showgrid="false"
     id="namedview897"
     inkscape:window-height="866"
     inkscape:window-width="1255"
     inkscape:pageshadow="2"
     inkscape:pageopacity="0"
     guidetolerance="10"
     gridtolerance="10"
     objecttolerance="10"
     borderopacity="1"
     inkscape:document-rotation="0"
     bordercolor="#666666"
     pagecolor="#ffffff" />
  <defs
     id="defs887">
    <style
       id="style885">.cls-1{fill:none;}</style>
  </defs>
  <g
     data-name="Layer 2"
     id="Layer_2">
    <g
       data-name="Layer 1"
       id="Layer_1-2">
      <path
         style="fill:#ffffff"
         id="path889"
         d="M152.62,104.73l-21.36,42.72V104.73Zm41,57.6c-.1,0-.15-.05-.2.08a6.19,6.19,0,0,1-3.76,3.77c-.11,0-.15.08-.1.21a3.12,3.12,0,0,0,2.91,1.94,2.83,2.83,0,0,0,1.15-.22,3.11,3.11,0,0,0,0-5.78Zm-2.4-7.06a6.2,6.2,0,0,1,2.18,2.89c0,.08,0,.18.19.12a3.11,3.11,0,0,0-1.07-6,3.1,3.1,0,0,0-2.92,2c0,.14,0,.18.1.23A5.85,5.85,0,0,1,191.19,155.27Zm-5.8,10.9a6.12,6.12,0,0,1-3.71-3.7c-.05-.14-.1-.17-.24-.11a3.07,3.07,0,0,0-2,2.66,3.12,3.12,0,0,0,6,1.37C185.52,166.28,185.53,166.23,185.39,166.17ZM184,160.28a3.56,3.56,0,1,0,3.47-3.53A3.55,3.55,0,0,0,184,160.28Zm-4.52-5.37a3.13,3.13,0,0,0,2,3.34c.14,0,.17,0,.21-.11a6.16,6.16,0,0,1,3.66-3.66c.13-.06.17-.09.11-.24a3.13,3.13,0,0,0-2.91-2.05,3.64,3.64,0,0,0-.73.09A3.05,3.05,0,0,0,179.44,154.91Zm-98-25.33a32.3,32.3,0,1,0,22.91,33.87H69.28a2.81,2.81,0,0,1-1.31-.31,2.94,2.94,0,0,1-1.32-3.94Zm43.28,17.85v-42.7H103.39ZM86.92,131.8,74,157.58h30.34A32.31,32.31,0,0,0,86.92,131.8Zm36.34,25.78L98.64,108.35l-9.1,18.2a38.16,38.16,0,0,1,20.7,31Zm92-36.3Q235,106.37,235,83.89q0-45.37-57.66-45.37H131.26V98.86h21.36l-3.77-7.5a3.05,3.05,0,0,1-.31-1.33,2.94,2.94,0,0,1,3-2.92h29.36a8.81,8.81,0,0,1,0,17.62H169.11a2.94,2.94,0,0,1,0-5.87h11.75a2.94,2.94,0,0,0,0-5.88H156.25l15.64,31.29a38.18,38.18,0,1,1-5.42,2.29l-9.1-18.2-26.11,52.22V217H184q15.94,0,25.36-2.74A48.3,48.3,0,0,0,227,204.56q16.88-14.51,16.87-39Q243.88,133.71,215.25,121.28ZM21,84.38q0,22.5,19.74,37.4Q12.12,134.2,12.12,166.1q0,24.45,16.87,39a48.27,48.27,0,0,0,17.65,9.67Q56,217.48,72,217.48h52.74v-54h-14.5a38.17,38.17,0,1,1-26.12-39.18l11.24-22.48L91,93H84a2.94,2.94,0,0,1,0-5.87h29.36a2.94,2.94,0,1,1,0,5.87H97.52l2.94,5.88h24.28V39H78.67Q21,39,21,84.38Zm161.3,63.38a6.46,6.46,0,0,1,1.4.15l-9.16-18.33a32.53,32.53,0,1,1-5.46,2.22l8.67,17.34a7.79,7.79,0,0,1,2.57-1.13A8.66,8.66,0,0,1,182.31,147.76Zm-1.2,2a5.41,5.41,0,0,0-4.27,4.6,5.67,5.67,0,0,0,2.72,6,5.68,5.68,0,0,0-2.72,4.2,5.78,5.78,0,0,0,5.73,6.54,5.74,5.74,0,0,0,5-2.75,5.73,5.73,0,0,0,5.94,2.61,5.49,5.49,0,0,0,4.54-4.19,5.72,5.72,0,0,0-2.46-6.43,5.68,5.68,0,0,0,2.6-6,5.41,5.41,0,0,0-4.21-4.49,5.66,5.66,0,0,0-6.42,2.54A5.68,5.68,0,0,0,181.11,149.71Z" />
      <rect
         id="rect891"
         height="256"
         width="256"
         class="cls-1" />
    </g>
  </g>
</svg>
