<svg xmlns="http://www.w3.org/2000/svg" viewBox="0 0 24 24"><defs><style>.cls-1{fill:#fff;}.cls-2{fill:none;}</style></defs><g id="Layer_2" data-name="Layer 2"><g id="Layer_1-2" data-name="Layer 1"><path class="cls-1" d="M20.24,4.28H3.76A1.86,1.86,0,0,0,1.9,6.14V17.86a1.86,1.86,0,0,0,1.86,1.86H20.24a1.86,1.86,0,0,0,1.86-1.86V6.14A1.86,1.86,0,0,0,20.24,4.28Zm.49,2.34V17.38L15.35,12ZM4.24,18.35l5.41-5.41,1.91,1.89a.68.68,0,0,0,1,0L14.38,13l5.38,5.38ZM19.76,5.65,12,13.38,4.25,5.65ZM8.67,12l-5.4,5.41V6.62Z"/><rect class="cls-2" width="24" height="24"/></g></g></svg>