<svg xmlns="http://www.w3.org/2000/svg" viewBox="0 0 24 24"><defs><style>.cls-1{fill:#fff;}.cls-2{fill:none;}</style></defs><g id="Layer_2" data-name="Layer 2"><g id="Layer_1-2" data-name="Layer 1"><path class="cls-1" d="M19.66,2H4.34A2.34,2.34,0,0,0,2,4.34V19.66A2.34,2.34,0,0,0,4.34,22H19.66A2.34,2.34,0,0,0,22,19.66V4.34A2.34,2.34,0,0,0,19.66,2Zm.78,17.66a.78.78,0,0,1-.78.78H15.2V14.07h2.42l.4-2.42H15.2V10A1.15,1.15,0,0,1,16.37,8.8H18V6.38H16.37A3.6,3.6,0,0,0,12.78,10v1.67H10.44v2.42h2.34v6.37H4.34a.78.78,0,0,1-.78-.78V4.34a.78.78,0,0,1,.78-.78H19.66a.78.78,0,0,1,.78.78Z"/><rect class="cls-2" width="24" height="24"/></g></g></svg>