<svg xmlns="http://www.w3.org/2000/svg" viewBox="0 0 24 24"><defs><style>.cls-1{fill:#fff;}.cls-2{fill:none;}</style></defs><g id="Layer_2" data-name="Layer 2"><g id="Layer_1-2" data-name="Layer 1"><path class="cls-1" d="M18.67,2H5.33A3.33,3.33,0,0,0,2,5.33V18.67A3.33,3.33,0,0,0,5.33,22H18.67A3.33,3.33,0,0,0,22,18.67V5.33A3.33,3.33,0,0,0,18.67,2Zm1.66,16.67a1.66,1.66,0,0,1-1.66,1.66H5.33a1.66,1.66,0,0,1-1.66-1.66V5.33A1.66,1.66,0,0,1,5.33,3.67H18.67a1.66,1.66,0,0,1,1.66,1.66Z"/><path class="cls-1" d="M12,7a5,5,0,1,0,5,5A5,5,0,0,0,12,7Zm0,8.33A3.33,3.33,0,1,1,15.33,12,3.33,3.33,0,0,1,12,15.33Z"/><circle class="cls-1" cx="17.42" cy="6.58" r="1.25"/><rect class="cls-2" width="24" height="24"/></g></g></svg>