<svg xmlns="http://www.w3.org/2000/svg" viewBox="0 0 24 24"><defs><style>.cls-1{fill:#fff;}.cls-2{fill:none;}</style></defs><g id="Layer_2" data-name="Layer 2"><g id="Layer_1-2" data-name="Layer 1"><path class="cls-1" d="M8.52,6.88a1.6,1.6,0,1,1-1.6-1.6A1.59,1.59,0,0,1,8.52,6.88Zm-3,11.64H8.25V9.7H5.52ZM22,4.34V19.66A2.34,2.34,0,0,1,19.66,22H4.34A2.34,2.34,0,0,1,2,19.66V4.34A2.34,2.34,0,0,1,4.34,2H19.66A2.34,2.34,0,0,1,22,4.34Zm-1.56,0a.78.78,0,0,0-.78-.78H4.34a.78.78,0,0,0-.78.78V19.66a.78.78,0,0,0,.78.78H19.66a.78.78,0,0,0,.78-.78Zm-5.22,5.2a2.82,2.82,0,0,0-2.59,1.36h0V9.7H10v8.82h2.65V14.14c0-1.15.3-2.26,1.72-2.26s1.45,1.31,1.45,2.33v4.31h2.69V13.67C18.48,11.3,18,9.54,15.22,9.54Z"/><rect class="cls-2" width="24" height="24"/></g></g></svg>