<svg xmlns="http://www.w3.org/2000/svg" viewBox="0 0 24 24"><defs><style>.cls-1{fill:#fff;}.cls-2{fill:none;}</style></defs><g id="Layer_2" data-name="Layer 2"><g id="Layer_1-2" data-name="Layer 1"><path class="cls-1" d="M21.79,5.57a.83.83,0,0,0-.21-.16c.05-.12.1-.24.14-.36a1,1,0,0,0-.22-1.11,1,1,0,0,0-.72-.3,1,1,0,0,0-.43.1c-.7.3-1.43.61-2,.81a6.62,6.62,0,0,0-2.79-.91,4.73,4.73,0,0,0-3.39,1.5,4.91,4.91,0,0,0-1.33,2.77,10.53,10.53,0,0,1-6-3.32l-.23-.23a.83.83,0,0,0-.56-.23H4a.8.8,0,0,0-.58.43l-.12.25A4.77,4.77,0,0,0,2.77,8a4.23,4.23,0,0,0,.32,1,1.11,1.11,0,0,0-.36.13,1.09,1.09,0,0,0-.49,1.21,6.27,6.27,0,0,0,1.22,2.25l-.17.11a1,1,0,0,0-.36,1.2A4.39,4.39,0,0,0,5,16.5a9.26,9.26,0,0,1-2,.25,1.12,1.12,0,0,0-.71,2c1.28,1,3.94,1.63,7.3,1.63,5.89,0,10.79-5.22,10.86-11.55a4,4,0,0,0,1.6-2.2A1.12,1.12,0,0,0,21.79,5.57ZM19.57,7.75a.81.81,0,0,0-.42.74,10.94,10.94,0,0,1-2.83,7.44A9,9,0,0,1,9.61,19a15.1,15.1,0,0,1-5.75-.9,8.32,8.32,0,0,0,3.24-.91.79.79,0,0,0-.23-1.48,3,3,0,0,1-2.33-1.51,3.79,3.79,0,0,0,.76.12.79.79,0,0,0,.45-1.44,5.83,5.83,0,0,1-1.84-2,2.34,2.34,0,0,0,.4.13l.21,0a.79.79,0,0,0,.59-1.31,4.11,4.11,0,0,1-1-1.93,3.36,3.36,0,0,1,.16-1.82,12.3,12.3,0,0,0,7,3.46l.15,0a.78.78,0,0,0,.5-.19.76.76,0,0,0,.29-.61A3.55,3.55,0,0,1,15.62,5a5.63,5.63,0,0,1,2.28.82.83.83,0,0,0,.41.1,1.07,1.07,0,0,0,.25,0c.47-.15,1-.35,1.49-.55L20,5.5a.8.8,0,0,0,0,.94.83.83,0,0,0,.58.32A2.3,2.3,0,0,1,19.57,7.75Z"/><rect class="cls-2" width="24" height="24"/></g></g></svg>